<?xml version="1.0" encoding="UTF-8"?>
<svg viewBox="0 0 231.37 166.23" xmlns="http://www.w3.org/2000/svg">
 <defs>
  <style>.cls-1{fill:#009245;stroke:#000;stroke-miterlimit:10;stroke-width:1.91px;}.cls-2{fill:#8cc63f;}</style>
 </defs>
 <path class="cls-1" d="m95.16 47.94c-41.91 18.44-72.21 62.96-70.77 93.58l-23.13 14.05 4.25 7.92 25.33-13.58c23.23 21.87 83.64 22.26 124.73-10.89 43.42-35.02 59.01-84.15 73.55-134.66-32.9 41.42-87.69 23.22-133.96 43.57z"/>
 <path class="cls-2" d="m208.81 32.43c-24.88 28.63-56.21 38.89-89.5 53.47-32.06 13.97-60.61 34.34-86.77 57.44 24.14-25.45 53.02-46.73 85.21-60.91 15.95-7.19 32.48-12.97 48.2-20.55 15.71-7.56 30.13-17.5 42.86-29.45z"/>
 <path class="cls-2" d="m169.68,34c-3.29,13.96-11.26,26.32-19.74,37.71,0,0-1.86-3.03-1.86-3.03,14.75-2.58,30.25-3.76,44.83.24-16.48-.95-32.99,1.32-49.12,4.43,9.75-12.28,19.13-25.12,25.89-39.34h0Z"/>
 <path class="cls-2" d="m122.99 47.63c-1.58 9.25-5.76 17.88-10.17 26.08-4.54 8.22-9.6 16.07-15.21 23.63l-1.5-2.97c6.61-0.14 13.18-0.15 19.77 0.02 13.18 0.29 26.36 1.06 39.42 2.99 6.51 0.99 13.07 2.2 19.25 4.55-12.87-2.64-26.01-2.91-39.08-3.41-13.07-0.4-26.2-0.52-39.28-0.46l-3.77 0.03 2.27-3c5.56-7.33 10.94-14.92 15.84-22.73 4.9-7.85 9.6-15.88 12.46-24.73z"/>
 <path class="cls-2" d="m79.58 69.66c-2.03 13.29-5.93 26.28-11.33 38.6-1.85 4.12-3.74 8.15-6.08 12.13l-1.38-2.8c19.45 2.01 38.86 5.06 57.55 10.91 6.19 2.02 12.4 4.27 17.97 7.69l-4.54-1.75-4.62-1.46c-21.77-6.07-44.33-8.97-66.72-11.74l-2.87-0.31c2.75-4.52 5.38-9.22 7.7-14.07 5.84-11.95 10.47-24.47 14.33-37.21z"/>
</svg>
